mtllib ./winner_box.mtl
o winner_box
v 2.514317 4.769405 -0.1003113
v 2.514317 4.769405 -10.04864
v 87.39305 4.769405 -10.04865
v 87.39305 4.769405 -0.1003265
v 2.514317 -4.985802 -0.1003113
v 2.514317 -4.985802 -10.04864
v 87.39305 -4.985802 -0.1003265
v 87.39305 -4.985802 -10.04865

vt -2.514317 -0.1003113
vt -2.514317 -10.04864
vt -87.39305 -10.04865
vt -87.39305 -0.1003265
vt -0.1003113 -4.985802
vt -10.04864 -4.985802
vt -10.04864 4.769405
vt -0.1003113 4.769405
vt 2.514317 0.1003113
vt 87.39305 0.1003265
vt 87.39305 10.04865
vt 2.514317 10.04864
vt 87.39305 -4.985802
vt 2.514317 -4.985802
vt 2.514317 4.769405
vt 87.39305 4.769405
vt 10.04865 -4.985802
vt 0.1003265 -4.985802
vt 0.1003265 4.769405
vt 10.04865 4.769405
vt -2.514317 -4.985802
vt -87.39305 -4.985802
vt -87.39305 4.769405
vt -2.514317 4.769405

vn 0 1 0
vn -1 0 0
vn 0 -1 0
vn 1.797716E-07 0 1
vn 1 0 0
vn -1.797716E-07 0 -1

usemtl winner
f 3/3/1 2/2/1 1/1/1
f 4/4/1 3/3/1 1/1/1
f 2/7/2 6/6/2 5/5/2
f 1/8/2 2/7/2 5/5/2
f 8/11/3 7/10/3 5/9/3
f 6/12/3 8/11/3 5/9/3
f 1/15/4 5/14/4 7/13/4
f 4/16/4 1/15/4 7/13/4
f 4/19/5 7/18/5 8/17/5
f 3/20/5 4/19/5 8/17/5
f 3/23/6 8/22/6 6/21/6
f 2/24/6 3/23/6 6/21/6

